<svg id="Livello_1" data-name="Livello 1" xmlns="http://www.w3.org/2000/svg" viewBox="0 0 65 66.29">
  <title>Tavola disegno 1</title>
  <g>
    <path d="M10.83,15.42c2.07,2.53,4.1,5.1,6.15,7.64l6.1,7.69c2,2.56,4,5.15,6.05,7.72l6,7.73a.49.49,0,0,1,.1.25l.45,9.32-.34.42-.17.09a1.46,1.46,0,0,0-.21.16,2.07,2.07,0,0,0-.37.45,4.33,4.33,0,0,0-.5,1.16,9.31,9.31,0,0,0-.24,1.3c0,.44-.06.9-.08,1.35h0a.33.33,0,0,1-.15.28c-1.75,1.15-3.54,2.24-5.39,3.23a24.9,24.9,0,0,1-2.87,1.33c-.24.1-.5.17-.76.26s-.54.13-.77.18c0,0-.07,0,0,0a.09.09,0,0,0,.06-.06s.05-.15,0-.21l-.05-.06h0s0,0,0,0l.16,0,.38,0,.77.05c2.08.11,4.17.14,6.25.17s4.17.06,6.26,0l6.25,0c2.09,0,4.18-.07,6.25-.18l.78,0,.37,0,.17,0h0l0,0-.05.06a.24.24,0,0,0,0,.21l.06.07s0,0,0,0a7.92,7.92,0,0,1-.78-.18,7.58,7.58,0,0,1-.76-.26,24.75,24.75,0,0,1-2.86-1.33c-1.85-1-3.64-2.08-5.39-3.24a.35.35,0,0,1-.15-.26v0c0-.46,0-.91-.08-1.35A9.45,9.45,0,0,0,41.19,58a4.13,4.13,0,0,0-.49-1.16,1.87,1.87,0,0,0-.37-.46,1.12,1.12,0,0,0-.22-.16,1,1,0,0,0-.17-.08.25.25,0,0,1-.32-.12.43.43,0,0,1,0-.11v-.18L40,46.45a.45.45,0,0,1,.09-.25h0l6-7.78c2-2.59,4-5.2,6-7.78l6-7.74c2-2.58,4-5.18,6-7.74l.37.76c-6.08-.05-12.17-.07-18.26-.15l-9.14-.11L28,15.5a.05.05,0,0,1,0-.05,0,0,0,0,1,0,0l9.13-.16,9.14-.11c6.09-.08,12.18-.1,18.26-.16a.48.48,0,0,1,.48.47.43.43,0,0,1-.1.29h0c-2,2.6-4,5.18-6,7.77l-6,7.77c-2,2.59-4,5.16-6,7.74l-6,7.73.09-.25-.55,9.31-.33-.4a1.33,1.33,0,0,1,.46.19,2,2,0,0,1,.33.25,2.9,2.9,0,0,1,.5.62,5.27,5.27,0,0,1,.56,1.38,8.87,8.87,0,0,1,.23,1.43c0,.47,0,.94.06,1.42l-.15-.29c1.7,1.18,3.46,2.31,5.26,3.33a27.45,27.45,0,0,0,2.78,1.36c.23.1.48.17.72.26s.46.12.74.19a.37.37,0,0,1,.17.06.24.24,0,0,1,.08.09.25.25,0,0,1,0,.23.29.29,0,0,1-.07.08l0,0-.09,0-.22,0-.4,0-.79,0c-4.18.11-8.35.12-12.52.11s-8.35,0-12.53-.12l-.78,0-.4,0-.23,0-.08,0a.36.36,0,0,1-.12-.11.26.26,0,0,1,0-.23.3.3,0,0,1,.08-.08.59.59,0,0,1,.17-.07c.27-.06.49-.11.74-.19s.48-.15.72-.26A24.56,24.56,0,0,0,28,63.73c1.8-1,3.56-2.14,5.26-3.32l-.15.29c0-.48,0-1,0-1.42a11.82,11.82,0,0,1,.23-1.43A5.87,5.87,0,0,1,34,56.46a2.9,2.9,0,0,1,.5-.62,3,3,0,0,1,.34-.26,1.33,1.33,0,0,1,.46-.19l-.34.42-.52-9.31.09.24L28.5,39c-2-2.6-4-5.18-6-7.79l-5.92-7.82c-2-2.63-3.93-5.24-5.87-7.87a.06.06,0,0,1,0-.07A0,0,0,0,1,10.83,15.42Z"/>
    <path d="M10.83,15.42c1.25,1.29,2.55,2.54,3.87,3.75s2.68,2.4,4.07,3.53S21.58,24.93,23,26s2.95,2,4.48,2.95a46.48,46.48,0,0,0,4.71,2.55,30,30,0,0,0,5,1.9l.65.19.66.14c.43.09.87.21,1.31.26l1.33.19,1.34.08a20.63,20.63,0,0,0,5.32-.52.21.21,0,0,1,.26.16.23.23,0,0,1,0,.18h0L43.92,40c-1.39,1.95-2.78,3.91-4.2,5.85a.12.12,0,0,1,0,.05l0,0a10.51,10.51,0,0,0-2.5,3.55,5.55,5.55,0,0,0-.15,4.1,6.67,6.67,0,0,0,1.09,1.82c.24.32.48.63.71.95a9.91,9.91,0,0,1,.63,1,4.83,4.83,0,0,1,.27.56c.07.2.15.4.21.6s.09.44.1.68a2.24,2.24,0,0,1-.1.72A2,2,0,0,1,39,61a3.16,3.16,0,0,1-1.3.39l.39-.59A5.76,5.76,0,0,0,39,62.36a8.49,8.49,0,0,0,1.33,1.28,10.43,10.43,0,0,0,3.39,1.63c.31.07.61.19.93.23l.94.17a7.81,7.81,0,0,0,1,.1l1,.09c.65,0,1.3,0,1.95,0l1.94-.14h0a0,0,0,0,1,.06,0,0,0,0,0,1,0,0l-1.94.3c-.66.07-1.31.1-2,.15a16.38,16.38,0,0,1-3.94-.4,10.32,10.32,0,0,1-3.69-1.58,8.66,8.66,0,0,1-1.52-1.38,6.19,6.19,0,0,1-1.14-1.77.43.43,0,0,1,.23-.56l.11,0h.06a2.34,2.34,0,0,0,.88-.29,1.06,1.06,0,0,0,.47-.62,2.58,2.58,0,0,0-.44-1.81,10.07,10.07,0,0,0-.58-.92c-.22-.3-.45-.58-.68-.88A7.21,7.21,0,0,1,36,53.89a6.07,6.07,0,0,1-.38-2.46,7.22,7.22,0,0,1,.58-2.4A9.58,9.58,0,0,1,37.43,47,11.27,11.27,0,0,1,39,45.17l-.07.08c1.44-1.93,2.9-3.83,4.35-5.74l4.41-5.7.22.34a24.11,24.11,0,0,1-5.43.4,27.87,27.87,0,0,1-5.37-.81c-.44-.11-.88-.2-1.32-.34L34.53,33c-.86-.3-1.72-.59-2.55-.95a39,39,0,0,1-4.9-2.4,57.52,57.52,0,0,1-8.79-6.39,63.77,63.77,0,0,1-7.54-7.79.05.05,0,0,1,.08-.06Z"/>
    <g>
      <path d="M21.09,15.45a10,10,0,0,1-3,7.16,10.77,10.77,0,0,1-14.78.25A10.46,10.46,0,0,1,.86,19.51a10,10,0,0,1,0-8.12A10.1,10.1,0,0,1,3.28,8a10.76,10.76,0,0,1,14.78.26A10,10,0,0,1,21.09,15.45Zm0,0a9.91,9.91,0,0,0-.82-3.87A10,10,0,0,0,18,8.39a10.32,10.32,0,0,0-7.18-2.67A10.19,10.19,0,0,0,3.86,8.65a9.47,9.47,0,0,0,0,13.6,10.17,10.17,0,0,0,6.93,2.93A10.32,10.32,0,0,0,18,22.51a9.6,9.6,0,0,0,3.12-7.06Z"/>
      <path d="M20.06,15.45a9.06,9.06,0,0,1-2.72,6.45A9.73,9.73,0,0,1,4,22.15,9.05,9.05,0,0,1,1.81,11.77,9.27,9.27,0,0,1,4,8.74,9.72,9.72,0,0,1,17.34,9,9,9,0,0,1,20.06,15.45Zm0,0A8.83,8.83,0,0,0,19.32,12,8.71,8.71,0,0,0,17.24,9.1a9.21,9.21,0,0,0-12.66.26,8.5,8.5,0,0,0,0,12.18,9.23,9.23,0,0,0,12.66.26,8.81,8.81,0,0,0,2.08-2.87A8.91,8.91,0,0,0,20.06,15.45Z"/>
      <path d="M10.62,16.18a11.21,11.21,0,0,1,.38,2,19.72,19.72,0,0,1,.11,2,19.68,19.68,0,0,1-.11,2,11.21,11.21,0,0,1-.38,2,10.4,10.4,0,0,1-.38-2,17.21,17.21,0,0,1-.11-2,19.72,19.72,0,0,1,.11-2A11.21,11.21,0,0,1,10.62,16.18Z"/>
      <path d="M10.56,6.75a10.4,10.4,0,0,1,.38,2,17.21,17.21,0,0,1,.11,2,17,17,0,0,1-.1,2,11.18,11.18,0,0,1-.39,2,11.15,11.15,0,0,1-.38-2,19.38,19.38,0,0,1-.11-2,19.68,19.68,0,0,1,.11-2A11.21,11.21,0,0,1,10.56,6.75Z"/>
      <path d="M2.28,15.45A8.15,8.15,0,0,1,4,15.06,14.46,14.46,0,0,1,5.74,15a14.5,14.5,0,0,1,1.74.1,8.29,8.29,0,0,1,1.73.39,8.26,8.26,0,0,1-1.73.38,12.71,12.71,0,0,1-1.74.11A12.66,12.66,0,0,1,4,15.83,8.12,8.12,0,0,1,2.28,15.45Z"/>
      <path d="M10.34,15.76a11.75,11.75,0,0,1-1.05,1.83A18.18,18.18,0,0,1,8,19.23a18.38,18.38,0,0,1-1.42,1.51A11.71,11.71,0,0,1,5,22.07a11,11,0,0,1,1-1.83A18.18,18.18,0,0,1,7.29,18.6a20.28,20.28,0,0,1,1.42-1.51A11.81,11.81,0,0,1,10.34,15.76Z"/>
      <path d="M16.25,8.84a11.55,11.55,0,0,1-1,1.79A16.42,16.42,0,0,1,14,12.25a19.46,19.46,0,0,1-1.39,1.48A10.28,10.28,0,0,1,11,15a11.31,11.31,0,0,1,1-1.8,17.55,17.55,0,0,1,1.23-1.61,19.46,19.46,0,0,1,1.39-1.48A10.77,10.77,0,0,1,16.25,8.84Z"/>
      <path d="M4.54,9.35a11.26,11.26,0,0,1,1.72,1.21A16.93,16.93,0,0,1,7.79,12a18.49,18.49,0,0,1,1.37,1.55,11.3,11.3,0,0,1,1.18,1.74A11.88,11.88,0,0,1,8.61,14a18.26,18.26,0,0,1-1.52-1.4,20.22,20.22,0,0,1-1.37-1.55A11.81,11.81,0,0,1,4.54,9.35Z"/>
    </g>
    <path d="M29.05,25.14a2.6,2.6,0,0,1,.12,1.11,1.05,1.05,0,0,1-.9.84,1.62,1.62,0,0,1-1.13-.4,2.62,2.62,0,0,1-.75-.83,1.5,1.5,0,0,1,1-2.11,1.46,1.46,0,0,1,.69,0,1.22,1.22,0,0,1,.56.35A2.59,2.59,0,0,1,29.05,25.14Zm-.09,0a.72.72,0,0,0-.69-.5,2.06,2.06,0,0,0-.63.09,1,1,0,0,0-.47.31,1.29,1.29,0,0,0-.26.65.73.73,0,0,0,.39.7.81.81,0,0,0,.75-.12c.19-.13.34-.2.57-.35A.71.71,0,0,0,29,25.17Z"/>
    <path d="M34.12,18.89a3.38,3.38,0,0,1,0,1.92,2,2,0,0,1-1.56,1.32,2.7,2.7,0,0,1-1.94-.49,3.28,3.28,0,0,1-1.25-1.47,2.38,2.38,0,0,1,.07-2.05,2.52,2.52,0,0,1,2.76-1.39,2.14,2.14,0,0,1,.95.48A3.31,3.31,0,0,1,34.12,18.89Zm-.09,0a1.67,1.67,0,0,0-1.19-1.13,2.65,2.65,0,0,0-1.45,0,2,2,0,0,0-1.13.81A2.28,2.28,0,0,0,29.9,20a1.68,1.68,0,0,0,.89,1.34,1.87,1.87,0,0,0,1.57,0,3.43,3.43,0,0,0,1.22-.84A1.67,1.67,0,0,0,34,18.91Z"/>
    <path d="M35.45,28.54a2.62,2.62,0,0,1,.07,1.32,1.31,1.31,0,0,1-1.08.95,2,2,0,0,1-1.34-.41,2.64,2.64,0,0,1-.89-1A1.78,1.78,0,0,1,33.4,27a1.76,1.76,0,0,1,.79,0,1.33,1.33,0,0,1,.66.38A2.59,2.59,0,0,1,35.45,28.54Zm-.1,0a.92.92,0,0,0-.82-.64,2.27,2.27,0,0,0-.85.07,1.38,1.38,0,0,0-.66.44,1.48,1.48,0,0,0-.29.84.94.94,0,0,0,.53.86,1.1,1.1,0,0,0,1-.12,5.7,5.7,0,0,0,.76-.46A1,1,0,0,0,35.35,28.56Z"/>
    <path d="M53.56,13.41c.37-.34.71-.53,1-.78s.59-.49.88-.73a1.91,1.91,0,0,0,.74-.89,1.53,1.53,0,0,0,.08-.6,2,2,0,0,0-.15-.6L56,9.52,56,9.38,55.9,9.3A1.48,1.48,0,0,0,55.57,9a2.48,2.48,0,0,0-.93-.36,6,6,0,0,0-1.14-.17,2.27,2.27,0,0,1-.73-.12,1,1,0,0,1-.55-.5,0,0,0,0,1,0-.07h0a1.29,1.29,0,0,0,.58.09,5,5,0,0,0,.55-.16,3.23,3.23,0,0,1,1.42-.09,2.43,2.43,0,0,1,1.37.71,1.79,1.79,0,0,1,.43.7,1.24,1.24,0,0,1,0,.22v.52c0,.23-.05.46-.05.68s0,.45-.1.67a3.23,3.23,0,0,1-.43,1.36,2.78,2.78,0,0,1-2.48,1.05h0a0,0,0,0,1,0-.05Z"/>
    <path d="M49.46,12.2a2.78,2.78,0,0,1-.41-1.11,3,3,0,0,1,0-1.16,2.91,2.91,0,0,1,.23-.55c.08-.18.17-.36.24-.53.13-.36.24-.72.38-1.12a2.77,2.77,0,0,1,.3-.56,2.56,2.56,0,0,1,.48-.45,2.47,2.47,0,0,1,.61-.3l.33-.09.08,0H52a2.47,2.47,0,0,1,1.23.41,1.52,1.52,0,0,1,.7,1,0,0,0,0,1,0,.06s0,0,0,0A2.93,2.93,0,0,0,52,7.35h-.19l-.21,0a1.48,1.48,0,0,0-.41.12,3.84,3.84,0,0,0-.4.21c-.13.09-.27.18-.41.29a1.7,1.7,0,0,0-.52.91,3.57,3.57,0,0,0,0,1.08,5.41,5.41,0,0,1-.08,1.06,6,6,0,0,1-.25,1.11h0a.05.05,0,0,1-.07,0A0,0,0,0,1,49.46,12.2Z"/>
    <path d="M54.64,7.76a11.12,11.12,0,0,1,.54-1.92A12,12,0,0,1,56,4.06c.35-.55.77-1.08,1.07-1.66A10.39,10.39,0,0,0,57.8.57l.13.38L57.28.73l.5-.17c-.19.54-.43,1.07-.66,1.6s-.48,1-.76,1.56a19.6,19.6,0,0,1-2,2.89,0,0,0,0,1-.07,0s0,0,0-.05a19.16,19.16,0,0,1,1.13-3.3,14.9,14.9,0,0,1,.79-1.54c.29-.5.56-1,.88-1.5l0-.07a.33.33,0,0,1,.45-.1l.58.39.06,0a.24.24,0,0,1,.07.33,10.67,10.67,0,0,0-1,1.71c-.27.6-.41,1.26-.62,1.88a11,11,0,0,1-.86,1.76A10.68,10.68,0,0,1,54.73,7.8a.06.06,0,0,1-.07,0S54.64,7.78,54.64,7.76Z"/>
    <path d="M51.71,12.57a10.32,10.32,0,0,1-.44,1.94,9.91,9.91,0,0,1-.71,1.83c-.32.57-.71,1.12-1,1.72A10.94,10.94,0,0,0,49,19.92a.24.24,0,0,1-.29.18l-.08,0-.67-.16a.32.32,0,0,1-.24-.4h0l0-.09c.15-.56.33-1.1.51-1.65a15,15,0,0,1,.61-1.62,18.38,18.38,0,0,1,1.68-3.07s0,0,.07,0a.08.08,0,0,1,0,.05,18,18,0,0,1-.82,3.39,14.93,14.93,0,0,1-.63,1.61c-.24.53-.47,1.06-.74,1.58l-.21-.49.6.33-.36.16a10.71,10.71,0,0,0,.86-1.77c.23-.61.33-1.28.51-1.91a10.21,10.21,0,0,1,.76-1.81,10.68,10.68,0,0,1,1-1.69.08.08,0,0,1,.08,0S51.71,12.55,51.71,12.57Z"/>
  </g>
</svg>
